<svg version="1.0" xmlns="http://www.w3.org/2000/svg"
 width="700.000000pt" height="700.000000pt" viewBox="0 0 400.000000 400.000000"
 preserveAspectRatio="xMidYMid meet">

<g transform="translate(0.000000,400.000000) scale(0.100000,-0.100000)"
fill="#1f2d30" stroke="none">
<path d="M740 2000 l0 -1260 150 0 150 0 0 1115 0 1115 295 0 295 0 0 -890 0
-890 150 0 150 0 0 890 0 890 295 0 295 0 0 -890 0 -890 150 0 150 0 0 1035 0
1035 -1040 0 -1040 0 0 -1260z"/>
<path d="M2970 2150 l0 -1110 -300 0 -300 0 0 890 0 890 -145 0 -145 0 0 -890
0 -890 -300 0 -300 0 0 890 0 890 -145 0 -145 0 0 -1040 0 -1040 1035 0 1035
0 0 1260 0 1260 -145 0 -145 0 0 -1110z"/>
</g>
</svg>
